<svg width="17" height="17" viewBox="0 0 17 17" fill="none" xmlns="http://www.w3.org/2000/svg">
    <g clip-path="url(#clip0_1_7)">
        <path d="M10.9399 10.6531C10.9399 10.1008 11.3876 9.65308 11.9399 9.65308H14.9393C15.4916 9.65308 15.9393 10.1008 15.9393 10.6531V16.3623C15.9393 16.572 15.6966 16.6885 15.533 16.5573L13.4396 14.8793L11.3463 16.5573C11.1826 16.6885 10.9399 16.572 10.9399 16.3623V10.6531Z" fill="#2C8DFE"/>
        <path d="M8.43991 12.6531H3.43991C3.16377 12.6531 2.93991 12.8769 2.93991 13.1531C2.93991 13.4292 3.16377 13.6531 3.43991 13.6531H8.43991C8.71605 13.6531 8.93991 13.4292 8.93991 13.1531C8.93991 12.8769 8.71605 12.6531 8.43991 12.6531Z" fill="#6C707E"/>
        <path d="M14.4399 6.65308H3.43991C3.16377 6.65308 2.93991 6.87693 2.93991 7.15308C2.93991 7.42922 3.16377 7.65308 3.43991 7.65308H14.4399C14.7161 7.65308 14.9399 7.42922 14.9399 7.15308C14.9399 6.87693 14.7161 6.65308 14.4399 6.65308Z" fill="#6C707E"/>
        <path d="M8.43991 9.65308H3.43991C3.16377 9.65308 2.93991 9.87693 2.93991 10.1531C2.93991 10.4292 3.16377 10.6531 3.43991 10.6531H8.43991C8.71605 10.6531 8.93991 10.4292 8.93991 10.1531C8.93991 9.87693 8.71605 9.65308 8.43991 9.65308Z" fill="#6C707E"/>
        <path d="M14.4399 3.65308H3.43991C3.16377 3.65308 2.93991 3.87693 2.93991 4.15308C2.93991 4.42922 3.16377 4.65308 3.43991 4.65308H14.4399C14.7161 4.65308 14.9399 4.42922 14.9399 4.15308C14.9399 3.87693 14.7161 3.65308 14.4399 3.65308Z" fill="#6C707E"/>
        <path d="M11.6192 12.3839V12.185L12.7982 11.6133V11.8841L11.9282 12.2809L11.9362 12.2649V12.3031L11.9282 12.288L12.7982 12.6839V12.9556L11.6192 12.3839ZM13.9119 11.0966L13.326 13.2734H13.089L13.6749 11.0966H13.9119ZM15.3812 12.3839L14.2022 12.9556V12.6839L15.0723 12.288L15.0634 12.3031V12.2649L15.0723 12.2809L14.2022 11.8841V11.6133L15.3812 12.185V12.3839Z" fill="white"/>
    </g>
    <defs>
        <clipPath id="clip0_1_7">
            <rect width="16" height="16" fill="white" transform="translate(0.939911 0.653076)"/>
        </clipPath>
    </defs>
</svg>