<svg width="16" height="16" viewBox="0 0 16 16" fill="none" xmlns="http://www.w3.org/2000/svg">
    <path d="M3 3.5C3 2.39543 3.89543 1.5 5 1.5H10.9989C12.1034 1.5 12.9989 2.39543 12.9989 3.5V14.9184C12.9989 15.3379 12.5134 15.5709 12.1861 15.3085L7.99943 11.9524L3.81273 15.3085C3.48543 15.5709 3 15.3379 3 14.9184V3.5Z" fill="#2C8DFE"/>
    <path d="M4.15545 7.81214V7.30078L6.58443 6.17862V6.80895L4.85858 7.54936L4.87811 7.51562V7.5973L4.85858 7.56357L6.58443 8.30398V8.9343L4.15545 7.81214ZM8.86737 5.19318L7.69549 9.54688H7.13263L8.30451 5.19318H8.86737ZM11.8432 7.81214L9.41424 8.9343V8.30398L11.1401 7.56357L11.1206 7.5973V7.51562L11.1401 7.54936L9.41424 6.80895V6.17862L11.8432 7.30078V7.81214Z" fill="white"/>
</svg>